<?xml version="1.0" encoding="utf-8"?>
<!-- Generator: Adobe Illustrator 17.0.0, SVG Export Plug-In . SVG Version: 6.00 Build 0)  -->
<!DOCTYPE svg PUBLIC "-//W3C//DTD SVG 1.1//EN" "http://www.w3.org/Graphics/SVG/1.1/DTD/svg11.dtd">
<svg version="1.1" id="Layer_1" xmlns="http://www.w3.org/2000/svg" xmlns:xlink="http://www.w3.org/1999/xlink" x="0px" y="0px"
	 width="686.865px" height="263.514px" viewBox="0 0 686.865 263.514" enable-background="new 0 0 686.865 263.514"
	 xml:space="preserve">
<g>
	<path fill-rule="evenodd" clip-rule="evenodd" fill="#FFFFFF" stroke="#FFFFFF" d="M228.813,175.41
		c-2.075-0.47,9.023-9.459,25.194-12.015c5.349-0.843,11.23-1.642,21.305-1.559c7.784,0.064,22.034,1.642,37.094,1.559
		c6.58-0.046,11.094-0.609,13.397-1.418c6.78-2.413,6.548-6.257,6.577-9.522c0.021-2.53-0.774-6.222-2.658-9.083
		c-6.275-9.521-25.719,3.427-34.892,1.234c-0.617-0.153-2.163-0.228-1.469-1.335c0.197-0.318,0.604-0.722,1.273-1.274
		c0.972-0.814,2.942-2.039,4.966-2.815c8.106-3.248,16.182-1.906,22.865-3.638c5.846-1.467,8.995-6.412,6.785-14.329
		c-1.427-5.054-3.902-9.002-9.989-9.849c-7.465-1.055-12.171,5.324-25.414,7.192c-3.073,0.43-7.448,0.61-7.915-0.592
		c-0.536-1.401,4.367-4.012,11.173-5.964c8.929-2.46,20.952-5.503,25.454-10.758c1.61-1.975,2.605-4.018,1.896-7.584
		c-1.64-8.236-7.238-10.737-10.581-10.714c-11.743,0.108-24.289,10.921-31.631,15.508c-4.575,2.933-11.177,6.393-17.235,8.062
		c-12.911,3.53-29.103,4.767-42.044-0.308c-1.78-0.707-1.75-1.646,1.141-1.183c19.792,3.129,32.537-0.634,34.372-1.013
		c22.837-4.744,43.206-31.88,61.125-23.708c9.202,4.774,13.81,24.341,0.435,27.629c12.97-0.308,18.891,23.708,9.346,28.725
		c8.167,2.885,10.296,22.101,4.068,27.294c-3.407,2.796-5.601,3.492-10.856,4.027c-8.429,0.847-18.942-0.63-41.719-2.04
		C245.027,163.685,231.991,176.139,228.813,175.41z"/>
	<path fill-rule="evenodd" clip-rule="evenodd" fill="#AC162C" d="M138.293,85.009c0,0.393-2.387,1.255-2.608,0.929
		c-2.185-3.117-10.534-25.177-12.888-35.777c-0.019-0.11-0.069-0.509,0.038-0.715c0.334-0.703,2.152-1.238,2.708-0.833
		C127.654,50.174,138.304,82.523,138.293,85.009z"/>
	<path fill-rule="evenodd" clip-rule="evenodd" fill="#AC162C" d="M156.957,78.349c-0.005,0.376-2.429,1.26-2.658,0.927
		c-2.177-3.17-10.536-25.182-12.888-35.782c-0.025-0.105-0.07-0.506,0.04-0.715c0.34-0.699,2.142-1.284,2.695-0.855
		C146.32,43.515,156.974,75.805,156.957,78.349z"/>
	<path fill-rule="evenodd" clip-rule="evenodd" fill="#AC162C" d="M94.028,198.037c-0.317,0.21-2.315-1.357-2.151-1.729
		c1.512-3.55,21.471-29.129,29.245-36.754c0.077-0.062,0.395-0.313,0.627-0.342c0.771-0.068,2.179,1.226,2.129,1.911
		C123.671,163.756,96.17,196.734,94.028,198.037z"/>
	<path fill-rule="evenodd" clip-rule="evenodd" fill="#AC162C" d="M108.072,212.056c-0.34,0.201-2.324-1.355-2.17-1.732
		c1.497-3.544,21.463-29.13,29.238-36.701c0.076-0.078,0.393-0.311,0.633-0.348c0.774-0.067,2.18,1.178,2.126,1.859
		C137.684,177.767,110.241,210.757,108.072,212.056z"/>
	<path fill-rule="evenodd" clip-rule="evenodd" fill="#AC162C" d="M257.127,159.69c0.163,0.356,2.691,0.114,2.764-0.279
		c0.629-3.763-2.29-36.092-4.685-46.689c-0.015-0.097-0.162-0.478-0.342-0.625c-0.607-0.484-2.471-0.192-2.78,0.414
		C250.805,114.89,256.047,157.449,257.127,159.69z"/>
	<path fill-rule="evenodd" clip-rule="evenodd" fill="#AC162C" d="M237.364,162.96c0.165,0.355,2.745,0.111,2.803-0.264
		c0.631-3.815-2.33-37.69-4.73-48.297c-0.025-0.099-0.156-0.469-0.338-0.618c-0.62-0.487-2.471-0.191-2.789,0.409
		C231.062,116.511,236.28,160.721,237.364,162.96z"/>
	<g>
		<path fill-rule="evenodd" clip-rule="evenodd" d="M215.724,114.141c-5.419-9.73-17.231-14.781-30.806-17.675
			c-17.084-1.875-33.603,7.384-34.675,8.047c-15.073,9.444-15.441,33.911-6.373,50.81c8.896,9.316,29.909,13.671,39.272,11.592
			c10.666-3.57,20.621-12.914,21.412-24.072c0.658-9.486-9.364-26.751-19.636-29.401c-10.575-2.786-21.775,1.112-29.461,9.767
			c-3.657,7.699-0.677,16.766,2.717,21.408c9.412,7.944,30.276,5.465,28.522-7.101c-1.895-13.592-16.076-9.593-14.261-5.378
			c1.499-1.787,9.457,0.877,6.213,8.05c-9.3,8.219-23.135-3.097-17.801-15.158c5.838-6.042,14.697-8.38,22.294-5.379
			c6.01,3.296,15.481,14.183,13.479,25.224c-0.636,3.472-9.456,13.008-13.927,14.231c-7.699,2.144-23.168-1.198-28.122-4.669
			c-7.065-5.01-9.646-24.272-7.981-30.342c4.131-15.119,28.763-26.371,46.477-18.042c12.384,5.798,23.313,19.249,21.149,41.652
			c-1.732,18.388-20.443,30.675-41.005,29.907c-23.028-0.867-35.683-14.293-45.486-28.519
			c-8.627-12.506-13.592-29.912-14.864-48.603c-1.163-17.183,2.071-31.849-10.936-42.67c-17.109-14.193-43.459-13.038-61.9,2.752
			C28.638,71.042,19.999,81.065,8.219,94.232c7.551,2.172,10.154,2.792,15.151,5.315c3.254,1.665,15.996,6.366,23.269,16.448
			c6.617,9.094,10.239,26.829,15.429,39.83c9.617,24.359,23.55,47.655,40.091,66.537c8.721,9.922,22.364,20.557,34.433,28.711
			c7.592,5.203,16.957,8.925,24.385,5.382c5.953-3.397,9.489-11,8.694-17.771c-0.013-0.075,0-0.162-0.008-0.23
			c0.008-0.256,0.08-0.62,0.427-0.856c5.766-3.938,9.259-12.105,7.975-23.053c-0.501-3.115,3.29-8.975,0.224-13.949
			c-2.258-3.774-8.712-8.875-14.356-9.777c-0.558-0.085-2.192-0.232-2.319,0.6c-0.624,4.406,17.194,8.965,12.512,15.513
			c-0.961,1.415-2.041,1.907-3.072,2.059c-4.397,0.621-12.739-7.021-22.89-12.415c-2.786-1.537-7.495-3.714-9.922-3.519
			c-0.765,0.147-0.724,0.758-0.72,0.881c0.488,7.955,33.629,16.504,35.446,25.871c0.788,4.08-2.32,10.348-6.193,10.975
			c-10.414,1.739-22.853-17.21-33.249-20.292c-0.347-0.111-2.189-0.685-3.115-0.677c-0.446-0.033-0.791,0.047-0.914,0.35
			c-0.11,0.279-0.005,0.651,0.156,1.085c0.334,0.864,1.1,2.091,1.622,2.809c7.107,9.606,29.849,16.902,32.594,25.331
			c2.333,7.156-4.253,13.097-9.471,13.337c-2.914,0.131-7.923-1.852-10.634-3.337c-4.292-2.413-10.558-6.694-15.794-10.595
			c-9.586-7.135-15.106-12.546-22.1-20.036c-11.806-12.66-21.067-26.005-30.106-42.701c-8.252-15.142-14.601-34.633-18.805-49.333
			c-3.322-11.608-11.045-20.261-19.32-25.35c5.595-5.886,3.979-22.013-3.553-25.021c3.374,4.368,7.284,17.031,0,23.19
			c-6.077-3.094-14.005-6.486-19.585-7.988C28.691,78.616,42.13,55.446,66.985,52.441c20.317-2.4,33.636,5.964,38.909,19.543
			c1.807,4.634,2.218,10.551,2.133,14.206c-0.791,33.379,7.983,61.836,26.851,81.158c8.139,8.364,18.14,14.493,32.069,16.028
			c1.968,0.214,4.99,0.438,8.268,0.505c9.842,0.217,20.63-4.318,23.883-6.193c10.407-6.016,22.357-14.959,23.156-29.052
			C222.914,137.052,219.446,120.837,215.724,114.141z"/>
	</g>
	<path fill-rule="evenodd" clip-rule="evenodd" fill="#FFFFFF" stroke="#FFFFFF" d="M74.259,72.453
		c0.534,2.181-0.343,4.256-1.99,4.658c-1.599,0.442-3.319-1.061-3.849-3.236c-0.544-2.176,0.326-4.257,1.928-4.657
		C71.939,68.838,73.725,70.284,74.259,72.453z"/>
	<path fill-rule="evenodd" clip-rule="evenodd" fill="#FFFFFF" stroke="#FFFFFF" d="M247.22,70.146
		c-0.992-4.106-4.563-6.114-7.1-6.268c1.982-0.122,4.199-1.126,5.489-2.989c4.241-5.708,3.09-22.848-5.191-24.857
		c-1.156-0.433-2.479-0.657-3.914-0.667c13.228-1.398,9.786-24.552,1.786-29.461c-6.442-3.913-21.446,0.327-30.288,2.721
		c-20.089,5.333-54.641,19.387-74.045,29.001c-0.393,0.197-1.501,0.776-2.387,1.158c-0.898,0.382-2.398,0.999-3.28,1.344
		c-0.7,0.27-2.164,0.728-4.782,1.073c-2.084,0.284-4.06,0.301-6.208,0.204c-2.577-0.133-3.549-0.275-3.858,0.235
		c-0.31,0.545,1.238,1.57,2.556,1.962c2.333,0.62,3.808,0.764,5.929,0.735c1.547,0.088,4.299-0.106,7.555-1.114
		c0.016-0.013,0.046-0.013,0.077-0.02v-0.005c1.048-0.332,2.182-0.715,3.483-1.25c19.881-8.633,59.843-26.846,85.626-31.674
		c6.68-1.264,11.788-1.901,15.307-0.369c4.973,2.472,6.863,10.607,6.287,15.079c-0.972,7.64-12.869,8.606-23.318,11.388
		c-8.208,2.172-22.669,7.458-21.435,8.817c1.027,1.113,26.311-7.563,40.002-6.221c6.682,0.649,7.913,4.702,8.31,9.485
		c0.636,7.554,0,9.829-4.82,11.991c-8.094,3.655-26.013,5.488-33.068,6.635c-1.073,0.179-2.598,0.482-3.138,0.61
		c-2.116,0.517-2.507,0.977,0.649,1.251c1.513,0.143,6.128,0.118,7.86,0.046c12.196-0.467,29.9-4.408,31.616,5.595
		c1.231,7.216-1.098,10.188-6.063,11.998c-4.392,1.624-11.776,2.236-21.101,1.307c-8.292-0.817-14.159-1.666-25.094-3.114
		c-20.642-2.732-43.457-7.924-53.497,10.96c-0.571,1.227-0.941,2.782-0.616,2.881c0.456,0.145,1.313-1.022,3.073-2.881
		c6.637-7.066,13.455-8.091,18.055-8.769c17.374-2.583,47.548,6.256,67.404,5.914C241.793,92.577,251.093,88.563,247.22,70.146z"/>
	<g>
		<path fill-rule="evenodd" clip-rule="evenodd" fill="#FFFFFF" stroke="#FFFFFF" d="M215.724,114.141
			c-5.419-9.73-17.231-14.781-30.806-17.675c-17.084-1.875-33.603,7.384-34.675,8.047c-15.073,9.444-15.441,33.911-6.373,50.81
			c8.896,9.316,29.909,13.671,39.272,11.592c10.666-3.57,20.621-12.914,21.412-24.072c0.658-9.486-9.364-26.751-19.636-29.401
			c-10.575-2.786-21.775,1.112-29.461,9.767c-3.657,7.699-0.677,16.766,2.717,21.408c9.412,7.944,30.276,5.465,28.522-7.101
			c-1.895-13.592-16.076-9.593-14.261-5.378c1.499-1.787,9.457,0.877,6.213,8.05c-9.3,8.219-23.135-3.097-17.801-15.158
			c5.838-6.042,14.697-8.38,22.294-5.379c6.01,3.296,15.481,14.183,13.479,25.224c-0.636,3.472-9.456,13.008-13.927,14.231
			c-7.699,2.144-23.168-1.198-28.122-4.669c-7.065-5.01-9.646-24.272-7.981-30.342c4.131-15.119,28.763-26.371,46.477-18.042
			c12.384,5.798,23.313,19.249,21.149,41.652c-1.732,18.388-20.443,30.675-41.005,29.907c-23.028-0.867-35.683-14.293-45.486-28.519
			c-8.627-12.506-13.592-29.912-14.864-48.603c-1.163-17.183,2.071-31.849-10.936-42.67c-17.109-14.193-43.459-13.038-61.9,2.752
			C28.638,71.042,19.999,81.065,8.219,94.232c7.551,2.172,10.154,2.792,15.151,5.315c3.254,1.665,15.996,6.366,23.269,16.448
			c6.617,9.094,10.239,26.829,15.429,39.83c9.617,24.359,23.55,47.655,40.091,66.537c8.721,9.922,22.364,20.557,34.433,28.711
			c7.592,5.203,16.957,8.925,24.385,5.382c5.953-3.397,9.489-11,8.694-17.771c-0.013-0.075,0-0.162-0.008-0.23
			c0.008-0.256,0.08-0.62,0.427-0.856c5.766-3.938,9.259-12.105,7.975-23.053c-0.501-3.115,3.29-8.975,0.224-13.949
			c-2.258-3.774-8.712-8.875-14.356-9.777c-0.558-0.085-2.192-0.232-2.319,0.6c-0.624,4.406,17.194,8.965,12.512,15.513
			c-0.961,1.415-2.041,1.907-3.072,2.059c-4.397,0.621-12.739-7.021-22.89-12.415c-2.786-1.537-7.495-3.714-9.922-3.519
			c-0.765,0.147-0.724,0.758-0.72,0.881c0.488,7.955,33.629,16.504,35.446,25.871c0.788,4.08-2.32,10.348-6.193,10.975
			c-10.414,1.739-22.853-17.21-33.249-20.292c-0.347-0.111-2.189-0.685-3.115-0.677c-0.446-0.033-0.791,0.047-0.914,0.35
			c-0.11,0.279-0.005,0.651,0.156,1.085c0.334,0.864,1.1,2.091,1.622,2.809c7.107,9.606,29.849,16.902,32.594,25.331
			c2.333,7.156-4.253,13.097-9.471,13.337c-2.914,0.131-7.923-1.852-10.634-3.337c-4.292-2.413-10.558-6.694-15.794-10.595
			c-9.586-7.135-15.106-12.546-22.1-20.036c-11.806-12.66-21.067-26.005-30.106-42.701c-8.252-15.142-14.601-34.633-18.805-49.333
			c-3.322-11.608-11.045-20.261-19.32-25.35c5.595-5.886,3.979-22.013-3.553-25.021c3.374,4.368,7.284,17.031,0,23.19
			c-6.077-3.094-14.005-6.486-19.585-7.988C28.691,78.616,42.13,55.446,66.985,52.441c20.317-2.4,33.636,5.964,38.909,19.543
			c1.807,4.634,2.218,10.551,2.133,14.206c-0.791,33.379,7.983,61.836,26.851,81.158c8.139,8.364,18.14,14.493,32.069,16.028
			c1.968,0.214,4.99,0.438,8.268,0.505c9.842,0.217,20.63-4.318,23.883-6.193c10.407-6.016,22.357-14.959,23.156-29.052
			C222.914,137.052,219.446,120.837,215.724,114.141z"/>
	</g>
	<g id="text">
		<g>
			<path fill="#FFFFFF" stroke="#FFFFFF" d="M419.849,108.311c-5.756,2.795-11.349,4.194-17.517,4.194
				c-9.046,0-16.365-2.796-21.874-8.306c-5.675-5.675-8.8-13.323-8.8-21.629c0-9.869,4.112-18.504,11.514-24.342
				c5.592-4.441,12.583-6.662,20.889-6.662c5.674,0,11.02,0.822,16.283,2.714l0.164,11.185l-2.714,0.246
				c-1.069-7.812-6.003-11.76-14.638-11.76c-14.062,0-23.356,10.527-23.356,27.551c0,17.434,9.128,28.044,22.861,28.044
				c9.047,0,14.31-4.441,15.708-13.323l2.879,0.412L419.849,108.311z"/>
			<path fill="#FFFFFF" stroke="#FFFFFF" d="M435.227,59.05c0-3.783-0.493-4.523-5.427-4.688v-1.974
				c3.618-0.657,6.744-1.89,9.54-3.865h2.138c-0.329,9.457-0.494,16.448-0.494,21.054v11.842c3.866-3.947,7.072-5.756,12.007-5.756
				c4.03,0,7.072,1.234,8.964,3.536c2.467,3.125,2.55,7.319,2.55,13.57v10.938c0,4.523,0.083,5.181,5.593,5.181v2.302
				c-3.454-0.164-6.416-0.246-8.718-0.246c-2.138,0-5.098,0.082-8.964,0.246v-2.302h0.658c5.263,0,5.756-0.905,5.756-6.744v-5.675
				c0-11.266-0.081-16.612-8.06-16.612c-3.782,0-7.154,1.48-9.786,4.112c0,2.796-0.081,6.578-0.081,11.184
				c0,2.715-0.083,4.934-0.083,6.744c0,5.758,0.493,6.991,4.276,6.991h1.316v2.302c-3.866-0.164-6.743-0.246-8.635-0.246
				s-4.77,0.082-8.635,0.246v-2.302c2.796-0.083,4.44-0.248,5.098-0.905c0.905-0.905,0.987-5.346,0.987-13.487v-4.03V59.05z"/>
			<path fill="#FFFFFF" stroke="#FFFFFF" d="M482.76,85.366c0-4.194-0.082-4.934-5.592-5.263V78.21
				c4.934-0.164,7.895-1.561,10.033-5.016h1.974c-0.412,5.839-0.658,10.691-0.658,14.474v14.638c0,5.592,0.247,6.58,4.934,6.58
				h1.151v2.302c-4.113-0.164-7.236-0.246-9.211-0.246c-2.056,0-5.098,0.082-9.211,0.246v-2.302c6.497,0,6.58-0.329,6.58-7.896
				V88.408V85.366z M481.444,59.461c0-2.467,2.302-5.182,4.852-5.182c2.056,0,3.866,1.645,3.866,3.537
				c0,2.714-2.467,5.263-4.934,5.263C483.007,63.08,481.444,61.517,481.444,59.461z"/>
			<path fill="#FFFFFF" stroke="#FFFFFF" d="M506.689,59.708c0-4.524-0.411-5.181-5.51-5.346v-1.974
				c3.618-0.657,6.744-1.89,9.54-3.865h2.138c-0.329,8.306-0.493,16.695-0.493,25.165v23.356c0,6.333,0.083,9.869,0.493,10.609
				c0.658,1.151,2.467,1.233,5.756,1.233v2.302c-4.358-0.164-7.483-0.246-9.457-0.246c-2.302,0-5.263,0.164-8.964,0.246v-2.302
				c2.961-0.083,4.688-0.248,5.429-0.905c1.069-1.07,1.069-6.826,1.069-17.517V59.708z"/>
			<path fill="#FFFFFF" stroke="#FFFFFF" d="M540.406,112.422c-9.704,0-16.447-7.236-16.447-16.694
				c0-11.431,8.389-19.82,19.984-19.82c3.043,0,6.003,0.741,9.128,2.056V63.326c0-7.238-0.247-8.799-4.606-8.799h-0.987v-1.892
				c3.62-0.741,6.826-2.057,9.788-4.112h1.809c-0.165,6.661-0.329,12.583-0.329,17.682v28.454c0,6.58,0,10.608,0.41,11.924
				c0.329,1.151,1.974,1.399,5.017,1.728v2.138c-2.96,0-5.593,0.575-8.141,1.809h-2.057l-0.905-4.359
				C548.631,110.695,544.93,112.422,540.406,112.422z M553.071,91.122c0-8.387-2.631-12.746-9.786-12.746
				c-7.073,0-12.829,5.921-12.829,14.886c0,8.799,5.922,15.213,12.911,15.213c3.372,0,6.578-1.397,9.704-4.276V91.122z"/>
			<path fill="#FFFFFF" stroke="#FFFFFF" d="M569.763,108.886h1.07c4.523,0,5.098-1.233,5.098-6.991c0-1.973-0.081-4.44-0.081-7.566
				c0-3.125,0.081-5.592,0.081-7.484c0-5.098-0.576-6.168-4.769-6.332v-1.892c3.372-0.739,5.922-2.302,8.224-5.427h1.892v7.894
				c4.276-3.865,7.731-5.756,10.198-5.756c2.796,0,5.098,2.55,5.098,6.251c0,1.233-1.234,2.219-3.289,2.219
				c-2.467,0-3.454-3.865-5.592-3.865c-0.74,0-3.289,0.987-6.086,3.618v19.82c0,5.098,0.493,5.51,7.977,5.51v2.302
				c-4.769-0.164-8.142-0.246-10.281-0.246c-2.055,0-5.262,0.082-9.54,0.246V108.886z"/>
			<path fill="#FFFFFF" stroke="#FFFFFF" d="M632.676,105.349c-4.113,4.688-8.883,6.99-14.474,6.99
				c-10.034,0-17.27-7.729-17.27-18.585c0-10.362,7.402-18.668,17.188-18.668c8.389,0,14.557,5.345,14.557,13.075
				c0,0.329-0.083,0.741-0.083,1.151c-5.592-0.164-9.951-0.247-13.158-0.247c-3.866,0-7.977,0.083-12.501,0.165
				c-0.081,1.069-0.081,1.809-0.081,2.302c0,8.964,6.496,16.119,14.885,16.119c3.537,0,6.333-1.399,9.622-4.03L632.676,105.349z
				 M625.685,83.885c0-3.536-3.207-6.497-7.729-6.497c-5.263,0-10.034,3.866-10.856,9.54
				C620.751,86.27,625.685,87.34,625.685,83.885z"/>
			<path fill="#FFFFFF" stroke="#FFFFFF" d="M637.69,108.886h1.07c4.523,0,5.098-1.233,5.098-6.991c0-1.973-0.081-4.44-0.081-7.566
				c0-3.125,0.081-5.592,0.081-7.484c0-5.098-0.576-6.168-4.77-6.332v-1.892c3.618-0.739,6.086-2.385,8.224-5.427h1.892v7.894
				l5.017-4.194c2.302-1.07,4.687-1.563,7.319-1.563c10.856,0,11.513,6.744,11.513,18.175v11.349c0,3.372,0.329,4.03,5.592,4.03
				v2.302c-3.536-0.164-6.415-0.246-8.717-0.246c-2.138,0-5.099,0.082-8.964,0.246v-2.302h0.658c5.427,0,5.839-0.905,5.839-7.155
				v-5.427c0-11.349-0.083-16.777-8.06-16.777c-3.783,0-7.238,1.399-9.869,4.03c0,2.96-0.083,6.826-0.083,11.595
				c0,2.715-0.083,4.934-0.083,6.744c0,5.758,0.494,6.991,4.277,6.991h1.315v2.302c-3.865-0.164-6.744-0.246-8.635-0.246
				c-1.89,0-4.769,0.082-8.635,0.246V108.886z"/>
			<path fill="#FFFFFF" stroke="#FFFFFF" d="M385.341,138.404c6.366,0,10.659,4.54,10.659,10.955
				c0,6.661-4.787,11.447-11.448,11.447c-6.218,0-10.757-4.589-10.757-11.2C373.796,142.895,378.533,138.404,385.341,138.404z
				 M385.391,159.129c4.096,0,6.613-3.109,6.613-8.29c0-6.563-3.258-11.003-7.451-11.003c-3.848,0-6.711,3.256-6.711,8.683
				C377.842,154.934,381.148,159.129,385.391,159.129z"/>
			<path fill="#FFFFFF" stroke="#FFFFFF" d="M413.863,139.244v1.776h-6.908v13.125c0,4.046,0.198,4.589,4.885,4.589h0.642v1.382
				c-2.861-0.099-5.082-0.149-6.611-0.149s-3.602,0.05-6.267,0.149v-1.382c3.651-0.05,3.8-0.641,3.8-4.441V141.02h-3.651v-1.333
				c1.184-0.098,2.417-0.246,3.651-0.443c0-10.905,4.046-16.728,10.214-16.728c2.122,0,3.306,0.888,3.306,2.073
				c0,1.134-0.937,2.023-1.974,2.023c-1.48,0-2.221-1.925-3.75-1.925c-2.811,0-4.243,3.158-4.243,9.523v5.033H413.863z"/>
			<path fill="#FFFFFF" stroke="#FFFFFF" d="M425.716,178.213l2.385-0.494c4.524-0.822,4.441-0.658,4.934-4.605
				c0.412-3.289,1.152-12.911,2.386-28.948c0.657-8.964,0.986-14.309,0.986-16.118c0-2.138-0.246-2.057-3.947-2.385l-4.359-0.412
				v-2.714c3.125,0.247,5.921,0.329,8.225,0.329c2.385,0,4.852-0.083,7.319-0.329c4.769,13.405,11.102,28.866,19.079,46.136
				c7.154-16.86,12.911-32.238,17.27-46.136c3.043,0.247,5.591,0.329,7.483,0.329s4.441-0.083,7.896-0.329v2.714l-1.974,0.083
				c-5.592,0.329-5.756-0.248-5.756,5.591c0,6.333,0.247,20.725,1.563,42.271c0.246,3.536-0.083,3.783,4.194,4.44l3.208,0.494v3.124
				c-2.961-0.245-6.58-0.41-11.102-0.41c-4.524,0-8.718,0.165-12.501,0.41v-2.96l4.359-0.658c4.03-0.575,4.276-1.068,4.276-4.605
				v-25.246c0-6.58-0.247-12.584-0.576-18.011c-5.51,12.254-9.951,26.481-15.214,42.024c-2.221,2.961-3.783,5.758-4.688,9.047
				h-1.728c-4.276-13.57-11.759-29.77-20.231-49.343c-1.562,16.859-2.055,30.017-2.055,38.898v2.879
				c0,3.782,0.329,3.701,4.276,4.357l3.537,0.658v2.96c-3.044-0.245-6.251-0.41-9.705-0.41c-3.043,0-6.251,0.083-9.54,0.41V178.213z
				"/>
			<path fill="#FFFFFF" stroke="#FFFFFF" d="M533.038,175.252c-4.112,4.687-8.883,6.991-14.474,6.991
				c-10.034,0-17.27-7.731-17.27-18.586c0-10.362,7.401-18.668,17.188-18.668c8.389,0,14.557,5.345,14.557,13.075
				c0,0.329-0.082,0.741-0.082,1.151c-5.593-0.164-9.951-0.247-13.158-0.247c-3.866,0-7.977,0.083-12.501,0.165
				c-0.081,1.069-0.081,1.809-0.081,2.302c0,8.964,6.496,16.119,14.885,16.119c3.537,0,6.333-1.399,9.622-4.03L533.038,175.252z
				 M526.047,153.788c0-3.536-3.207-6.497-7.729-6.497c-5.263,0-10.034,3.866-10.856,9.54
				C521.112,156.172,526.047,157.242,526.047,153.788z"/>
			<path fill="#FFFFFF" stroke="#FFFFFF" d="M539.368,178.789c4.44,0,8.224-5.592,16.036-14.803
				c-7.237-9.869-10.691-15.708-15.131-15.708h-0.577v-2.138c4.278,0.164,6.909,0.164,7.813,0.164c1.892,0,4.605,0,8.06-0.164v2.056
				c-2.55,0.083-3.784,0.329-3.784,1.151c0,1.562,2.632,4.934,6.99,11.102c4.359-5.839,6.579-9.374,6.579-10.773
				c0-1.069-1.48-1.48-4.441-1.48v-2.056c3.62,0.164,6.087,0.164,7.32,0.164c1.315,0,3.701,0,7.073-0.164v2.138
				c-0.329-0.083-0.577-0.083-0.905-0.083c-4.112,0-6.991,5.099-14.31,13.899c7.813,10.527,10.856,16.695,14.886,16.695h0.576v2.221
				c-4.195-0.165-6.662-0.165-7.484-0.165c-3.043,0-6.168,0.083-9.457,0.165v-2.139c3.865-0.164,5.263-0.164,5.263-1.561
				c0-1.316-2.714-4.934-7.238-11.597c-5.181,6.744-7.894,10.527-7.894,11.678c0,0.987,1.563,1.48,4.523,1.48v2.139
				c-3.207-0.082-5.51-0.165-6.99-0.165c-1.316,0-3.618,0-6.908,0.165V178.789z"/>
			<path fill="#FFFFFF" stroke="#FFFFFF" d="M588.052,155.268c0-4.194-0.083-4.934-5.592-5.263v-1.892
				c4.934-0.164,7.894-1.561,10.033-5.016h1.974c-0.412,5.839-0.658,10.691-0.658,14.474v14.638c0,5.592,0.246,6.58,4.935,6.58
				h1.151v2.303c-4.112-0.165-7.237-0.248-9.211-0.248c-2.055,0-5.098,0.083-9.211,0.248v-2.303c6.497,0,6.58-0.329,6.58-7.896
				V158.31V155.268z M586.736,129.363c0-2.467,2.302-5.182,4.852-5.182c2.055,0,3.866,1.645,3.866,3.537
				c0,2.714-2.467,5.263-4.934,5.263C588.298,132.982,586.736,131.419,586.736,129.363z"/>
			<path fill="#FFFFFF" stroke="#FFFFFF" d="M635.996,176.075c-4.194,4.111-8.964,6.168-13.98,6.168
				c-9.458,0-16.366-7.649-16.366-18.011c0-11.102,8.141-19.326,18.668-19.326c6.909,0,11.349,3.618,11.349,7.072
				c0,1.645-0.822,2.302-2.631,2.302c-1.892,0-3.372-0.905-4.359-2.548c-1.316-2.138-1.645-4.441-5.674-4.441
				c-5.592,0-11.185,5.756-11.185,14.145c0,9.376,6.251,16.201,13.899,16.201c3.124,0,6.003-1.151,9.211-3.289L635.996,176.075z"/>
			<path fill="#FFFFFF" stroke="#FFFFFF" d="M660.748,144.906c10.609,0,17.765,7.565,17.765,18.258
				c0,11.101-7.977,19.079-19.079,19.079c-10.363,0-17.929-7.649-17.929-18.669C641.505,152.39,649.399,144.906,660.748,144.906z
				 M660.831,179.446c6.826,0,11.02-5.181,11.02-13.815c0-10.938-5.427-18.34-12.417-18.34c-6.416,0-11.185,5.428-11.185,14.474
				C648.248,172.455,653.758,179.446,660.831,179.446z"/>
		</g>
		<g>
			<path fill="#FFFFFF" stroke="#FFFFFF" d="M373.712,212.937v-1.028c3.03,0,3.516-0.703,3.516-4.545v-6.923
				c0-3.842-0.486-4.491-3.516-4.491v-1.028h10.766v1.028c-3.03,0-3.517,0.648-3.517,4.491v6.923c0,3.842,0.487,4.545,3.517,4.545
				v1.028H373.712z"/>
			<path fill="#FFFFFF" stroke="#FFFFFF" d="M409.255,200.44v13.145h-1.136l-12.606-13.688v7.465c0,3.842,0.487,4.545,3.517,4.545
				v1.028h-8.711v-1.028c3.03,0,3.517-0.703,3.517-4.545v-6.923c0-3.842-0.487-4.491-3.517-4.491v-1.028h5.357l11.902,12.876v-7.357
				c0-3.842-0.487-4.491-3.517-4.491v-1.028h8.711v1.028C409.742,195.949,409.255,196.598,409.255,200.44z"/>
			<path fill="#FFFFFF" stroke="#FFFFFF" d="M422.889,196.544c-3.895,0-4.491,0.649-4.924,2.434l-0.27,1.028h-0.92l0.433-5.085
				h19.909l0.378,5.085h-0.864l-0.271-1.028c-0.487-1.786-1.028-2.434-4.923-2.434h-2.435v10.819c0,3.842,0.487,4.545,3.517,4.545
				v1.028h-10.712v-1.028c2.975,0,3.517-0.703,3.517-4.545v-10.819H422.889z"/>
			<path fill="#FFFFFF" stroke="#FFFFFF" d="M457.73,200.006h-0.866l-0.271-1.028c-0.487-1.786-1.082-2.434-4.923-2.434h-2.976v6.06
				c4.22,0,4.544-0.38,4.544-3.191h1.028v8.06h-1.028c0-2.812-0.324-3.191-4.544-3.191v2.488c0,3.842,0.487,4.491,3.3,4.491h0.757
				c3.841,0,4.437-0.648,4.924-2.434l0.27-0.974h0.811l-0.324,5.085h-16.987v-1.028c3.029,0,3.515-0.703,3.515-4.545v-6.923
				c0-3.842-0.487-4.491-3.515-4.491v-1.028h15.906L457.73,200.006z"/>
			<path fill="#FFFFFF" stroke="#FFFFFF" d="M471.85,205.417v1.946c0,3.842,0.487,4.545,3.516,4.545v1.028H464.6v-1.028
				c3.029,0,3.515-0.703,3.515-4.545v-6.923c0-3.842-0.487-4.491-3.515-4.491v-1.028h9.521c4.761,0,7.304,2.271,7.304,5.248
				c0,2.38-1.784,4.491-5.14,5.085l2.489,2.705c2.164,2.38,3.733,3.625,6.058,3.949v1.028h-6.058l-6.005-7.52H471.85z
				 M474.068,196.544h-2.218v7.196h2.218c2.434,0,3.516-1.677,3.516-3.571C477.584,198.221,476.502,196.544,474.068,196.544z"/>
			<path fill="#FFFFFF" stroke="#FFFFFF" d="M507.339,200.44v13.145h-1.136l-12.606-13.688v7.465c0,3.842,0.487,4.545,3.517,4.545
				v1.028h-8.711v-1.028c3.03,0,3.517-0.703,3.517-4.545v-6.923c0-3.842-0.487-4.491-3.517-4.491v-1.028h5.356l11.902,12.876v-7.357
				c0-3.842-0.487-4.491-3.517-4.491v-1.028h8.711v1.028C507.826,195.949,507.339,196.598,507.339,200.44z"/>
			<path fill="#FFFFFF" stroke="#FFFFFF" d="M519.734,208.88c-1.027,2.163-1.027,3.029,2.327,3.029v1.028h-8.602v-1.028
				c2.705,0,3.191-0.703,4.544-3.679l6.601-14.011h0.974l6.545,14.011c1.353,2.922,1.894,3.679,4.328,3.679v1.028H526.01v-1.028
				c3.083,0,3.408-0.866,2.38-3.029l-0.811-1.786h-7.034L519.734,208.88z M524.062,199.681l-2.705,5.791h5.411L524.062,199.681z"/>
			<path fill="#FFFFFF" stroke="#FFFFFF" d="M543.404,196.544c-3.894,0-4.49,0.649-4.923,2.434l-0.27,1.028h-0.92l0.433-5.085
				h19.908l0.379,5.085h-0.866l-0.27-1.028c-0.487-1.786-1.027-2.434-4.923-2.434h-2.435v10.819c0,3.842,0.487,4.545,3.517,4.545
				v1.028h-10.712v-1.028c2.975,0,3.517-0.703,3.517-4.545v-10.819H543.404z"/>
			<path fill="#FFFFFF" stroke="#FFFFFF" d="M561.962,212.937v-1.028c3.029,0,3.516-0.703,3.516-4.545v-6.923
				c0-3.842-0.487-4.491-3.516-4.491v-1.028h10.765v1.028c-3.029,0-3.516,0.648-3.516,4.491v6.923c0,3.842,0.487,4.545,3.516,4.545
				v1.028H561.962z"/>
			<path fill="#FFFFFF" stroke="#FFFFFF" d="M589.878,213.639c-5.951,0-10.82-4.383-10.82-9.737c0-5.302,4.869-9.685,10.82-9.685
				c5.951,0,10.82,4.382,10.82,9.685C600.698,209.257,595.829,213.639,589.878,213.639z M589.878,195.895
				c-4.977,0-6.708,4.491-6.708,8.008c0,3.569,1.731,8.006,6.708,8.006c5.031,0,6.762-4.437,6.762-8.006
				C596.64,200.386,594.909,195.895,589.878,195.895z"/>
			<path fill="#FFFFFF" stroke="#FFFFFF" d="M626.017,200.44v13.145h-1.136l-12.606-13.688v7.465c0,3.842,0.487,4.545,3.517,4.545
				v1.028h-8.711v-1.028c3.03,0,3.517-0.703,3.517-4.545v-6.923c0-3.842-0.487-4.491-3.517-4.491v-1.028h5.357l11.902,12.876v-7.357
				c0-3.842-0.487-4.491-3.517-4.491v-1.028h8.711v1.028C626.505,195.949,626.017,196.598,626.017,200.44z"/>
			<path fill="#FFFFFF" stroke="#FFFFFF" d="M638.411,208.88c-1.027,2.163-1.027,3.029,2.327,3.029v1.028h-8.602v-1.028
				c2.706,0,3.191-0.703,4.544-3.679l6.601-14.011h0.974l6.545,14.011c1.353,2.922,1.894,3.679,4.328,3.679v1.028h-10.441v-1.028
				c3.083,0,3.408-0.866,2.38-3.029l-0.812-1.786h-7.034L638.411,208.88z M642.739,199.681l-2.705,5.791h5.411L642.739,199.681z"/>
			<path fill="#FFFFFF" stroke="#FFFFFF" d="M669.574,211.259h1.894c3.895,0,4.49-0.648,4.923-2.434l0.27-0.974h0.866l-0.378,5.085
				h-18.123v-1.028c3.029,0,3.515-0.703,3.515-4.545v-6.923c0-3.842-0.487-4.491-3.515-4.491v-1.028h10.765v1.028
				c-3.029,0-3.516,0.648-3.516,4.491v6.328C666.274,210.611,666.762,211.259,669.574,211.259z"/>
		</g>
	</g>
	<path fill-rule="evenodd" clip-rule="evenodd" fill="#003DA6" d="M144.222,64.527c-0.077,2.289-1.934,4.031-4.149,3.969
		c-2.225-0.065-3.983-1.906-3.911-4.192c0.067-2.23,1.921-3.974,4.135-3.924C142.524,60.45,144.288,62.312,144.222,64.527z"/>
	<path fill-rule="evenodd" clip-rule="evenodd" fill="#003DA6" d="M148.725,76.97c-0.065,2.295-1.922,4.021-4.169,3.964
		c-2.249-0.063-4.005-1.899-3.937-4.185c0.063-2.225,1.912-3.994,4.196-3.924C147.035,72.894,148.786,74.753,148.725,76.97z"/>
	<path fill-rule="evenodd" clip-rule="evenodd" fill="#003DA6" d="M139.372,51.453c-0.06,2.254-1.92,4.031-4.143,3.967
		c-2.216-0.057-4.027-1.953-3.963-4.193c0.071-2.214,1.974-3.976,4.192-3.912C137.679,47.372,139.438,49.239,139.372,51.453z"/>
	<path fill-rule="evenodd" clip-rule="evenodd" fill="#003DA6" d="M116.926,189.018c-1.952,1.098-4.39,0.404-5.484-1.543
		c-1.092-1.929-0.41-4.439,1.546-5.533c1.937-1.082,4.391-0.398,5.484,1.537C119.568,185.478,118.859,187.942,116.926,189.018z"/>
	<path fill-rule="evenodd" clip-rule="evenodd" fill="#003DA6" d="M106.211,202.246c-1.948,1.109-4.403,0.402-5.484-1.526
		c-1.087-1.94-0.411-4.395,1.546-5.541c1.933-1.093,4.392-0.4,5.48,1.593C108.85,198.712,108.153,201.166,106.211,202.246z"/>
	<path fill-rule="evenodd" clip-rule="evenodd" fill="#003DA6" d="M127.609,175.722c-1.955,1.087-4.386,0.397-5.481-1.553
		c-1.103-1.931-0.419-4.439,1.543-5.528c1.945-1.078,4.391-0.389,5.475,1.545C130.239,172.173,129.535,174.628,127.609,175.722z"/>
	<path fill-rule="evenodd" clip-rule="evenodd" fill="#003DA6" d="M242.621,139.588c1.047,1.992,3.481,2.722,5.446,1.672
		c1.961-1.04,2.752-3.468,1.664-5.5c-1.032-1.967-3.479-2.713-5.44-1.668C242.327,135.132,241.576,137.634,242.621,139.588z"/>
	<path fill-rule="evenodd" clip-rule="evenodd" fill="#003DA6" d="M244.455,155.964c1.048,1.98,3.483,2.708,5.446,1.674
		c2.023-1.043,2.766-3.476,1.726-5.451c-1.084-1.956-3.539-2.715-5.505-1.67C244.161,151.563,243.413,154,244.455,155.964z"/>
	<path fill-rule="evenodd" clip-rule="evenodd" fill="#003DA6" d="M240.856,122.06c1.052,1.973,3.483,2.769,5.45,1.672
		c1.962-1.04,2.721-3.472,1.661-5.444c-1.035-1.965-3.478-2.718-5.439-1.674C240.565,117.651,239.813,120.097,240.856,122.06z"/>
</g>
</svg>
