<?xml version="1.0" encoding="utf-8"?>
<!-- Generator: Adobe Illustrator 17.0.0, SVG Export Plug-In . SVG Version: 6.00 Build 0)  -->
<!DOCTYPE svg PUBLIC "-//W3C//DTD SVG 1.1//EN" "http://www.w3.org/Graphics/SVG/1.1/DTD/svg11.dtd">
<svg version="1.1" id="Layer_1" xmlns="http://www.w3.org/2000/svg" xmlns:xlink="http://www.w3.org/1999/xlink" x="0px" y="0px"
	 width="464.189px" height="358.108px" viewBox="0 0 464.189 358.108" enable-background="new 0 0 464.189 358.108"
	 xml:space="preserve">
<g>
	<path fill-rule="evenodd" clip-rule="evenodd" fill="#221F1F" d="M309.941,240.52c-2.876-0.652,12.512-13.116,34.934-16.66
		c7.417-1.169,15.571-2.276,29.541-2.162c10.793,0.088,30.551,2.276,51.434,2.162c9.123-0.064,15.383-0.844,18.577-1.966
		c9.401-3.346,9.079-8.675,9.12-13.203c0.029-3.508-1.073-8.628-3.686-12.595c-8.701-13.201-35.662,4.752-48.381,1.711
		c-0.855-0.213-2.999-0.316-2.038-1.851c0.273-0.441,0.837-1.001,1.765-1.766c1.347-1.128,4.08-2.827,6.886-3.903
		c11.239-4.504,22.437-2.643,31.704-5.045c8.106-2.034,12.472-8.891,9.408-19.868c-1.979-7.007-5.411-12.482-13.85-13.656
		c-10.351-1.464-16.876,7.382-35.238,9.972c-4.262,0.597-10.327,0.845-10.974-0.821c-0.744-1.943,6.056-5.563,15.492-8.269
		c12.381-3.411,29.052-7.63,35.294-14.917c2.232-2.739,3.612-5.571,2.63-10.516c-2.275-11.42-10.036-14.887-14.672-14.856
		c-16.282,0.15-33.678,15.143-43.859,21.504c-6.343,4.067-15.497,8.864-23.897,11.179c-17.903,4.894-40.354,6.61-58.297-0.427
		c-2.468-0.981-2.427-2.283,1.581-1.64c27.443,4.338,45.115-0.88,47.66-1.405c31.665-6.578,59.909-44.204,84.755-32.874
		c12.76,6.62,19.149,33.75,0.603,38.309c17.984-0.427,26.193,32.874,12.959,39.83c11.324,4,14.276,30.644,5.64,37.845
		c-4.724,3.877-7.766,4.842-15.053,5.584c-11.687,1.174-26.265-0.873-57.847-2.829C332.423,224.262,314.347,241.531,309.941,240.52z
		"/>
	<path fill-rule="evenodd" clip-rule="evenodd" fill="#AC162C" d="M184.427,115.171c0,0.545-3.31,1.74-3.616,1.288
		c-3.03-4.322-14.606-34.909-17.87-49.607c-0.026-0.152-0.095-0.706,0.052-0.991c0.463-0.975,2.984-1.717,3.755-1.154
		C169.675,66.87,184.443,111.724,184.427,115.171z"/>
	<path fill-rule="evenodd" clip-rule="evenodd" fill="#AC162C" d="M210.306,105.937c-0.006,0.522-3.368,1.747-3.686,1.285
		c-3.018-4.396-14.609-34.917-17.87-49.615c-0.034-0.146-0.096-0.702,0.056-0.991c0.471-0.97,2.97-1.781,3.736-1.186
		C195.558,57.636,210.329,102.409,210.306,105.937z"/>
	<path fill-rule="evenodd" clip-rule="evenodd" fill="#AC162C" d="M123.051,271.894c-0.44,0.291-3.21-1.882-2.983-2.397
		c2.096-4.922,29.772-40.389,40.551-50.963c0.106-0.086,0.548-0.433,0.87-0.474c1.069-0.095,3.022,1.701,2.951,2.649
		C164.153,224.361,126.021,270.087,123.051,271.894z"/>
	<path fill-rule="evenodd" clip-rule="evenodd" fill="#AC162C" d="M142.523,291.332c-0.471,0.278-3.223-1.879-3.009-2.402
		c2.075-4.914,29.76-40.391,40.541-50.89c0.105-0.108,0.545-0.432,0.878-0.482c1.073-0.093,3.022,1.634,2.948,2.577
		C183.583,243.787,145.53,289.531,142.523,291.332z"/>
	<path fill-rule="evenodd" clip-rule="evenodd" fill="#AC162C" d="M349.2,218.722c0.226,0.494,3.731,0.159,3.833-0.387
		c0.872-5.218-3.176-50.044-6.497-64.738c-0.021-0.134-0.224-0.662-0.474-0.867c-0.842-0.67-3.426-0.267-3.854,0.574
		C340.434,156.604,347.702,215.615,349.2,218.722z"/>
	<path fill-rule="evenodd" clip-rule="evenodd" fill="#AC162C" d="M321.797,223.257c0.229,0.492,3.807,0.154,3.887-0.366
		c0.875-5.29-3.231-52.26-6.559-66.967c-0.034-0.137-0.216-0.651-0.469-0.857c-0.86-0.676-3.426-0.265-3.867,0.567
		C313.06,158.852,320.294,220.153,321.797,223.257z"/>
	<g>
		<path fill-rule="evenodd" clip-rule="evenodd" d="M291.791,155.565c-7.514-13.491-23.893-20.495-42.715-24.508
			c-23.688-2.6-46.593,10.239-48.08,11.158c-20.9,13.095-21.41,47.02-8.837,70.452c12.335,12.917,41.472,18.956,54.454,16.073
			c14.789-4.95,28.592-17.906,29.69-33.377c0.912-13.153-12.984-37.093-27.227-40.767c-14.663-3.862-30.193,1.542-40.85,13.543
			c-5.071,10.675-0.938,23.247,3.768,29.683c13.051,11.015,41.98,7.578,39.549-9.846c-2.628-18.846-22.29-13.301-19.774-7.457
			c2.078-2.478,13.113,1.216,8.615,11.162c-12.896,11.396-32.079-4.294-24.683-21.018c8.095-8.378,20.379-11.62,30.913-7.459
			c8.333,4.571,21.466,19.666,18.689,34.975c-0.881,4.814-13.111,18.037-19.311,19.733c-10.675,2.973-32.125-1.661-38.993-6.474
			c-9.797-6.947-13.375-33.655-11.066-42.072c5.728-20.964,39.882-36.566,64.444-25.016c17.172,8.039,32.326,26.691,29.325,57.754
			c-2.402,25.497-28.346,42.533-56.856,41.468c-31.93-1.202-49.478-19.818-63.07-39.544c-11.962-17.34-18.847-41.475-20.611-67.392
			c-1.613-23.826,2.871-44.162-15.164-59.165c-23.723-19.68-60.259-18.078-85.83,3.815c-15.79,14.518-27.768,28.416-44.103,46.673
			c10.471,3.012,14.08,3.871,21.008,7.37c4.512,2.309,22.179,8.827,32.264,22.807c9.176,12.609,14.197,37.2,21.394,55.227
			c13.335,33.776,32.655,66.078,55.589,92.259c12.093,13.757,31.009,28.504,47.745,39.81c10.526,7.215,23.512,12.376,33.812,7.462
			c8.255-4.71,13.157-15.252,12.055-24.64c-0.018-0.104,0-0.224-0.011-0.319c0.011-0.355,0.111-0.86,0.592-1.187
			c7.995-5.46,12.838-16.784,11.058-31.964c-0.695-4.319,4.562-12.444,0.311-19.342c-3.132-5.233-12.08-12.305-19.906-13.556
			c-0.773-0.118-3.04-0.322-3.215,0.832c-0.865,6.109,23.84,12.431,17.348,21.51c-1.333,1.962-2.831,2.644-4.26,2.855
			c-6.096,0.862-17.664-9.735-31.739-17.215c-3.862-2.131-10.392-5.149-13.757-4.879c-1.061,0.204-1.004,1.052-0.999,1.222
			c0.677,11.03,46.629,22.884,49.149,35.873c1.092,5.658-3.217,14.348-8.587,15.218c-14.439,2.412-31.688-23.863-46.103-28.136
			c-0.481-0.154-3.035-0.95-4.319-0.939c-0.618-0.046-1.097,0.065-1.267,0.486c-0.152,0.387-0.007,0.903,0.216,1.504
			c0.463,1.199,1.526,2.899,2.249,3.895c9.854,13.319,41.388,23.437,45.194,35.124c3.235,9.923-5.897,18.16-13.133,18.493
			c-4.041,0.182-10.986-2.567-14.745-4.626c-5.951-3.346-14.64-9.282-21.899-14.691c-13.292-9.893-20.946-17.396-30.643-27.781
			c-16.371-17.555-29.211-36.057-41.745-59.208c-11.442-20.995-20.246-48.021-26.074-68.404
			c-4.607-16.096-15.314-28.094-26.789-35.15c7.758-8.162,5.517-30.522-4.927-34.694c4.678,6.057,10.099,23.615,0,32.154
			c-8.426-4.291-19.419-8.994-27.157-11.076c19.679-17.949,38.312-50.075,72.776-54.242c28.171-3.328,46.639,8.269,53.95,27.098
			c2.505,6.425,3.076,14.63,2.958,19.698c-1.097,46.283,11.069,85.74,37.232,112.532c11.285,11.597,25.152,20.096,44.466,22.225
			c2.729,0.296,6.919,0.607,11.465,0.7c13.646,0.301,28.606-5.987,33.116-8.587c14.43-8.341,30.999-20.741,32.108-40.283
			C301.761,187.333,296.952,164.85,291.791,155.565z"/>
	</g>
	<path fill-rule="evenodd" clip-rule="evenodd" fill="#221F1F" d="M95.639,97.762c0.741,3.024-0.476,5.902-2.759,6.459
		c-2.217,0.613-4.602-1.472-5.337-4.487c-0.754-3.017,0.451-5.903,2.674-6.458C92.422,92.749,94.898,94.753,95.639,97.762z"/>
	<path fill-rule="evenodd" clip-rule="evenodd" fill="#221F1F" d="M335.464,94.562c-1.375-5.694-6.327-8.477-9.844-8.692
		c2.749-0.17,5.823-1.562,7.61-4.145c5.881-7.915,4.284-31.68-7.198-34.467c-1.603-0.6-3.437-0.911-5.427-0.925
		c18.341-1.938,13.57-34.043,2.476-40.851c-8.932-5.426-29.737,0.453-41.997,3.773c-27.855,7.395-75.765,26.882-102.67,40.213
		c-0.545,0.273-2.082,1.076-3.31,1.606c-1.244,0.53-3.325,1.385-4.548,1.864c-0.971,0.375-3.001,1.009-6.631,1.488
		c-2.89,0.394-5.63,0.417-8.608,0.283c-3.573-0.185-4.92-0.381-5.349,0.325c-0.43,0.756,1.717,2.177,3.544,2.721
		c3.235,0.86,5.28,1.06,8.22,1.019c2.146,0.123,5.961-0.147,10.476-1.545c0.023-0.018,0.064-0.018,0.106-0.028v-0.007
		c1.454-0.461,3.025-0.991,4.829-1.733c27.567-11.97,82.978-37.224,118.728-43.918c9.262-1.753,16.345-2.636,21.224-0.512
		c6.896,3.427,9.516,14.708,8.717,20.908c-1.348,10.593-17.844,11.933-32.332,15.79c-11.382,3.012-31.433,10.341-29.721,12.225
		c1.424,1.544,36.483-10.487,55.466-8.626c9.265,0.899,10.972,6.52,11.522,13.152c0.881,10.474,0,13.628-6.683,16.626
		c-11.223,5.068-36.069,7.609-45.851,9.2c-1.488,0.249-3.603,0.669-4.351,0.845c-2.934,0.716-3.477,1.354,0.899,1.735
		c2.098,0.198,8.497,0.163,10.899,0.064c16.91-0.648,41.459-6.113,43.838,7.758c1.707,10.006-1.522,14.127-8.407,16.636
		c-6.09,2.252-16.328,3.1-29.258,1.812c-11.497-1.133-19.633-2.31-34.795-4.317c-28.622-3.789-60.256-10.987-74.179,15.196
		c-0.791,1.701-1.305,3.858-0.854,3.995c0.633,0.201,1.82-1.418,4.262-3.995c9.203-9.798,18.657-11.22,25.034-12.16
		c24.091-3.581,65.929,8.675,93.461,8.201C327.939,125.665,340.834,120.1,335.464,94.562z"/>
	<g>
		<path fill-rule="evenodd" clip-rule="evenodd" fill="#221F1F" d="M291.791,155.565c-7.514-13.491-23.893-20.495-42.715-24.508
			c-23.688-2.6-46.593,10.239-48.08,11.158c-20.9,13.095-21.41,47.02-8.837,70.452c12.335,12.917,41.472,18.956,54.454,16.073
			c14.789-4.95,28.592-17.906,29.69-33.377c0.912-13.153-12.984-37.093-27.227-40.767c-14.663-3.862-30.193,1.542-40.85,13.543
			c-5.071,10.675-0.938,23.247,3.768,29.683c13.051,11.015,41.98,7.578,39.549-9.846c-2.628-18.846-22.29-13.301-19.774-7.457
			c2.078-2.478,13.113,1.216,8.615,11.162c-12.896,11.396-32.079-4.294-24.683-21.018c8.095-8.378,20.379-11.62,30.913-7.459
			c8.333,4.571,21.466,19.666,18.689,34.975c-0.881,4.814-13.111,18.037-19.311,19.733c-10.675,2.973-32.125-1.661-38.993-6.474
			c-9.797-6.947-13.375-33.655-11.066-42.072c5.728-20.964,39.882-36.566,64.444-25.016c17.172,8.039,32.326,26.691,29.325,57.754
			c-2.402,25.497-28.346,42.533-56.856,41.468c-31.93-1.202-49.478-19.818-63.07-39.544c-11.962-17.34-18.847-41.475-20.611-67.392
			c-1.613-23.826,2.871-44.162-15.164-59.165c-23.723-19.68-60.259-18.078-85.83,3.815c-15.79,14.518-27.768,28.416-44.103,46.673
			c10.471,3.012,14.08,3.871,21.008,7.37c4.512,2.309,22.179,8.827,32.264,22.807c9.176,12.609,14.197,37.2,21.394,55.227
			c13.335,33.776,32.655,66.078,55.589,92.259c12.093,13.757,31.009,28.504,47.745,39.81c10.526,7.215,23.512,12.376,33.812,7.462
			c8.255-4.71,13.157-15.252,12.055-24.64c-0.018-0.104,0-0.224-0.011-0.319c0.011-0.355,0.111-0.86,0.592-1.187
			c7.995-5.46,12.838-16.784,11.058-31.964c-0.695-4.319,4.562-12.444,0.311-19.342c-3.132-5.233-12.08-12.305-19.906-13.556
			c-0.773-0.118-3.04-0.322-3.215,0.832c-0.865,6.109,23.84,12.431,17.348,21.51c-1.333,1.962-2.831,2.644-4.26,2.855
			c-6.096,0.862-17.664-9.735-31.739-17.215c-3.862-2.131-10.392-5.149-13.757-4.879c-1.061,0.204-1.004,1.052-0.999,1.222
			c0.677,11.03,46.629,22.884,49.149,35.873c1.092,5.658-3.217,14.348-8.587,15.218c-14.439,2.412-31.688-23.863-46.103-28.136
			c-0.481-0.154-3.035-0.95-4.319-0.939c-0.618-0.046-1.097,0.065-1.267,0.486c-0.152,0.387-0.007,0.903,0.216,1.504
			c0.463,1.199,1.526,2.899,2.249,3.895c9.854,13.319,41.388,23.437,45.194,35.124c3.235,9.923-5.897,18.16-13.133,18.493
			c-4.041,0.182-10.986-2.567-14.745-4.626c-5.951-3.346-14.64-9.282-21.899-14.691c-13.292-9.893-20.946-17.396-30.643-27.781
			c-16.371-17.555-29.211-36.057-41.745-59.208c-11.442-20.995-20.246-48.021-26.074-68.404
			c-4.607-16.096-15.314-28.094-26.789-35.15c7.758-8.162,5.517-30.522-4.927-34.694c4.678,6.057,10.099,23.615,0,32.154
			c-8.426-4.291-19.419-8.994-27.157-11.076c19.679-17.949,38.312-50.075,72.776-54.242c28.171-3.328,46.639,8.269,53.95,27.098
			c2.505,6.425,3.076,14.63,2.958,19.698c-1.097,46.283,11.069,85.74,37.232,112.532c11.285,11.597,25.152,20.096,44.466,22.225
			c2.729,0.296,6.919,0.607,11.465,0.7c13.646,0.301,28.606-5.987,33.116-8.587c14.43-8.341,30.999-20.741,32.108-40.283
			C301.761,187.333,296.952,164.85,291.791,155.565z"/>
	</g>
	<path fill-rule="evenodd" clip-rule="evenodd" fill="#003DA6" d="M192.649,86.772c-0.107,3.174-2.682,5.589-5.753,5.503
		c-3.086-0.09-5.522-2.643-5.422-5.812c0.093-3.092,2.664-5.511,5.733-5.44C190.294,81.118,192.74,83.701,192.649,86.772z"/>
	<path fill-rule="evenodd" clip-rule="evenodd" fill="#003DA6" d="M198.892,104.025c-0.09,3.182-2.665,5.575-5.78,5.496
		c-3.119-0.087-5.553-2.633-5.459-5.802c0.087-3.086,2.651-5.539,5.818-5.44C196.549,98.374,198.977,100.951,198.892,104.025z"/>
	<path fill-rule="evenodd" clip-rule="evenodd" fill="#003DA6" d="M185.923,68.643c-0.083,3.125-2.662,5.589-5.745,5.501
		c-3.072-0.079-5.584-2.708-5.494-5.814c0.098-3.069,2.737-5.512,5.812-5.424C183.577,62.985,186.015,65.574,185.923,68.643z"/>
	<path fill-rule="evenodd" clip-rule="evenodd" fill="#003DA6" d="M154.801,259.388c-2.706,1.522-6.086,0.561-7.604-2.139
		c-1.514-2.675-0.569-6.155,2.144-7.673c2.685-1.5,6.088-0.551,7.604,2.131C158.464,254.48,157.481,257.897,154.801,259.388z"/>
	<path fill-rule="evenodd" clip-rule="evenodd" fill="#003DA6" d="M139.943,277.73c-2.702,1.537-6.105,0.558-7.604-2.116
		c-1.508-2.69-0.569-6.095,2.144-7.683c2.68-1.516,6.09-0.554,7.599,2.209C143.603,272.829,142.636,276.233,139.943,277.73z"/>
	<path fill-rule="evenodd" clip-rule="evenodd" fill="#003DA6" d="M169.613,240.952c-2.711,1.508-6.082,0.551-7.599-2.154
		c-1.529-2.677-0.58-6.155,2.139-7.665c2.697-1.494,6.088-0.54,7.591,2.142C173.26,236.031,172.283,239.436,169.613,240.952z"/>
	<path fill-rule="evenodd" clip-rule="evenodd" fill="#003DA6" d="M329.087,190.849c1.452,2.762,4.827,3.774,7.552,2.319
		c2.719-1.442,3.815-4.809,2.307-7.627c-1.431-2.728-4.824-3.761-7.544-2.313C328.679,184.671,327.638,188.14,329.087,190.849z"/>
	<path fill-rule="evenodd" clip-rule="evenodd" fill="#003DA6" d="M331.629,213.556c1.454,2.746,4.829,3.755,7.552,2.321
		c2.804-1.446,3.835-4.819,2.394-7.558c-1.503-2.713-4.907-3.764-7.633-2.316C331.222,207.453,330.184,210.834,331.629,213.556z"/>
	<path fill-rule="evenodd" clip-rule="evenodd" fill="#003DA6" d="M326.639,166.546c1.458,2.736,4.829,3.84,7.556,2.319
		c2.721-1.442,3.773-4.814,2.302-7.548c-1.436-2.724-4.822-3.769-7.542-2.321C326.236,160.432,325.193,163.823,326.639,166.546z"/>
</g>
</svg>
